<svg xmlns="http://www.w3.org/2000/svg" id="Ebene_1" data-name="Ebene 1" viewBox="306.65 57.92 219.33 425.58">
  <defs>
    <style>
      .cls-1 {
        fill: #2b2b2b;
      }
    </style>
  </defs>
  <path class="cls-1" d="m521.52,116.65c-10.4,6.13-51.97,14.19-73.79,15.72-21.18,1.48-34.79-.93-67.24,23.68,8.29-21.25,10.07-36.27,12.08-52.41,2.13-17.14,13.68-38.38,16.49-42.39,2.82-4.01,4-5.73-7.13,2.61-11.13,8.34-38.87,37.02-49.46,63.89-10.59,26.87-15.83,57.58-22.38,78.14-5.63,17.66-14.08,32.74-15.12,36.95-1.11-.09-2.19.17-3.21,1.01-2.43,1.99-3.67,6.23-2.77,7.33.9,1.1,3.06.01,5.1,2.35s2.53,7.61,5.65,12.14c3.12,4.54,4.25,5.81,4.25,5.81l6.17-6.24s-3.3-2.85-5.98-6.56c-2.68-3.7-4.04-11.38-4.98-13.31-.15-.3-.36-.8-.62-1.04,2.13-3.36,11.13-11.35,31.46-18.94,25.34-9.46,43.25-2.4,71.27-14.58,28.02-12.18,47.49-25.3,62.66-49.35,13.22-20.95,23.39-30.15,28.16-34.78,7.44-7.22,20.86-16.79,9.39-10.03Z"/>
  <path class="cls-1" d="m504.15,330.99c-6.27-6.56-17.94-21.66-40.22-31.86-26.35-12.07-41.24-11.39-57.34-14.61-16.15-3.23-28-9.82-38.82-16.46-11.42-7-29.15-11.64-41.67-.92-17.68,15.13-10.85,35.15-9.33,43.54,4.49,24.8-8.66,50.69-9.88,79.64-.67,15.83.01,22.74,2.96,32.71,1.86,6.28,4.99,15.64,9.65,26.29,7.35,16.8,25.27,36.43,25.46,33.97.03-.42-5.43-7.08-6.39-9.05-6.44-13.14-3.57-30.92.43-41.01,11.81-29.73,31.04-52.89,63.72-72.88,37.04-22.65,69.07-28.45,94.42-20.37,19.11,6.09,25,21.48,25.26,21,1-1.85-13.54-25.06-18.25-29.98Z"/>
  <g>
    <path class="cls-1" d="m355.79,459.09c-1.36-4.83-2.99-23.14,9.92-24.65,12.92-1.51,44.41-6.44,52.3-8.18,7.89-1.73,6.75,1.94,3.13,4.83-15.24,12.13-31.06,24.45-45.34,37.17-3.33,2.97-14.32,11.08-20.01-9.18Z"/>
    <path class="cls-1" d="m385.21,479.48c-2.23-.35-17.59-2.32-9.6-9.29,14.76-12.87,31.34-26.85,46.8-38.43,6.83-5.12,8.81-.11,7.5,2.45-.87,1.7-18.75,32.15-24.73,40.46-5.97,8.3-15.04,5.59-19.98,4.81Z"/>
    <path class="cls-1" d="m426.7,478.42c-7.36,1.74-24.52,4.26-20.02-3.3,4.49-7.56,22.01-36.07,24.4-40.17,2.39-4.09,5.55-3.77,6.55.6.99,4.29,6.9,22.28,10.18,28.7,3.27,6.42-11.72,11.95-21.1,14.17Z"/>
    <path class="cls-1" d="m473.63,453.72c-14.43,11.21-20.92,13.56-23.31,9.72-2.39-3.84-10.21-23.03-11.06-28.66-.85-5.65,2.02-7.12,6.16-7.36,4.14-.24,31.92,5.17,38.2,5.83,6.27.66,5.52,8.41-9.99,20.47Z"/>
    <path class="cls-1" d="m506.68,410.16c-3.69,10.46-12.07,22.21-18.9,21.7-6.83-.5-31.51-4.69-35.98-5.11-6.27-.6-8.74-3.8-.74-7.46,16.86-7.71,33.85-16.98,50.69-24.14,7.17-3.05,8.22,5.67,4.93,15.01Z"/>
    <path class="cls-1" d="m505.79,372.98s7.15,13.83-3.91,19.49c-15.98,8.17-32.42,16.15-49.41,24.63-6.86,3.42-10.06,1.28-4.68-4.7,12.87-14.29,26.91-28.54,40.81-41.8,6.95-6.63,13.1-5.52,17.18,2.38Z"/>
    <path class="cls-1" d="m477.2,354.56c11.66.07,17.38,7.53,11.55,13.63-13.21,13.78-28.04,26.82-40.29,41.11-5.81,6.78-12.14,7.71-11.26,2.57.65-3.84,10.22-36.52,12.24-43.73,2.02-7.21,7.55-13.69,27.76-13.57Z"/>
    <path class="cls-1" d="m423.77,365.87c-15.04,7.12-26.94,16.89-23.22,21.65,3.72,4.75,22.57,26.09,25.55,30.12,2.98,4.03,8.58-2.26,9.36-5.63.71-3.08,10.61-35.64,12.03-46.06,1.42-10.42-16.73-3.38-23.71-.07Z"/>
    <path class="cls-1" d="m371.14,407.19c-8.52,11.62-11.93,25.51-2.78,24.87,9.15-.64,38.81-4.33,48.91-6.56,10.1-2.23,8.67-5.16,7.87-6.55-.8-1.39-20.49-25.19-25.51-29.49-5.02-4.3-20.44,6.75-28.49,17.73Z"/>
  </g>
</svg>